<svg aria-hidden="true" style="position: absolute; width: 0; height: 0; overflow: hidden;" version="1.1" xmlns="http://www.w3.org/2000/svg" xmlns:xlink="http://www.w3.org/1999/xlink">
<defs>
<symbol id="icon-chevron-with-circle-right" viewBox="0 0 20 20">
<path d="M11 10l-2.302-2.506c-0.196-0.198-0.196-0.519 0-0.718 0.196-0.197 0.515-0.197 0.71 0l2.807 2.864c0.196 0.199 0.196 0.52 0 0.717l-2.807 2.864c-0.195 0.199-0.514 0.198-0.71 0-0.196-0.197-0.196-0.518 0-0.717l2.302-2.504zM10 0.4c5.302 0 9.6 4.298 9.6 9.6 0 5.303-4.298 9.6-9.6 9.6s-9.6-4.297-9.6-9.6c0-5.302 4.298-9.6 9.6-9.6zM10 18.354c4.613 0 8.354-3.74 8.354-8.354s-3.741-8.354-8.354-8.354c-4.615 0-8.354 3.74-8.354 8.354s3.739 8.354 8.354 8.354z"></path>
</symbol>
<symbol id="icon-cheveron-right" viewBox="0 0 20 20">
<path d="M12.95 10.707l0.707-0.707-5.657-5.657-1.414 1.414 4.242 4.243-4.242 4.243 1.414 1.414 4.95-4.95z"></path>
</symbol>
</defs>
</svg>
